<?xml version="1.0" encoding="UTF-8"?>
<svg xmlns="http://www.w3.org/2000/svg" viewBox="0 0 40 13" shape-rendering="crispEdges">
  <polygon fill="#38C008" points="4,3 8,3 9,4 9,9 8,10 4,10 3,9 3,4"/>
  <polygon fill="none" stroke="#38C008" stroke-width="1" stroke-linejoin="miter" points="3.5,0.5 8.5,0.5 11.5,3.5 11.5,9.5 8.5,12.5 3.5,12.5 0.5,9.5 0.5,3.5"/>
  <polygon fill="none" stroke="#38C008" stroke-width="1" stroke-linejoin="miter" points="17.5,0.5 22.5,0.5 25.5,3.5 25.5,9.5 22.5,12.5 17.5,12.5 14.5,9.5 14.5,3.5"/>
  <polygon fill="none" stroke="#38C008" stroke-width="1" stroke-linejoin="miter" points="31.5,0.5 36.5,0.5 39.5,3.5 39.5,9.5 36.5,12.5 31.5,12.5 28.5,9.5 28.5,3.5"/>
</svg>
