<?xml version='1.0' encoding='utf-8'?>
<svg version="1.1" viewBox="0 0 99.414993 100" xmlns="http://www.w3.org/2000/svg"><path id="affinity" d="M 52.502899 62.669006 l 1.172394 30.275391 l -18.793488 -27.641602 l 5.556702 -20.366302 l -26.836914 -14.150299 l 33.382309 -2.44928 l 14.843704 15.027374 l 25.630386 -16.197296 l -14.552689 30.127014 L 52.502899 62.669006 z M 88.700698 57.769592 l -22.046906 19.415008 l -3.145493 22.815399 l 23.583496 -11.005798 l 12.323196 -29.030304 l -5.265594 -32.066406 L 88.700698 57.769592 z M 65.666504 22.705108 l 22.707001 -7.823212 l -21.31781 -14.881897 l -31.334 3.839905 l -25.118195 20.5849 l 28.5923 -10.201111 L 65.666504 22.705108 z M 18.976593 50.786194 l -16.746597 -14.84378 l -2.229996 25.884796 l 18.976593 25.230377 l 30.384201 11.444427 l -23.144989 -19.634827 L 18.976593 50.786194 z" fill="#6B55A6" /></svg>