<?xml version='1.0' encoding='utf-8'?>
<svg version="1.1" viewBox="0 0 99.845764 100" xmlns="http://www.w3.org/2000/svg"><path id="DeathAlt" d="M 88.087951 16.926788 l 9.018555 15.206024 l -9.018555 11.110382 V 16.926788 z M 11.757873 83.0401 v -33.055695 l -11.757874 -8.925812 L 11.757873 83.0401 z M 11.757873 16.926788 l -9.019531 15.206024 l 9.019531 11.110382 V 16.926788 z M 88.087951 69.529297 v 13.510803 l 11.757812 -41.981506 l -11.757812 8.925812 V 69.529297 z M 84.303772 12.710998 l -29.026367 -12.710999 l 9.265625 13.88089 l 3.046875 16.558624 l 1.014648 19.544891 l -0.677734 12.894501 l 16.376953 -16.1875 V 12.710998 z M 15.542053 46.691406 l 16.375 16.1875 l -0.676758 -12.894501 l 1.015625 -19.544891 l 3.046875 -16.558624 l 9.264648 -13.88089 l -29.025391 12.710999 V 46.691406 z M 35.703186 30.439514 l -0.954102 19.544891 l 0.954102 19.544891 l 0.739258 4.462891 l -20.900391 -20.898377 v 34.163086 l 29.025391 12.743103 v -97.200195 l -6.064453 11.081085 L 35.703186 30.439514 L 35.703186 30.439514 z M 64.142639 69.529297 l 0.954102 -19.544891 l -0.954102 -19.544891 l -2.799805 -16.558624 l -6.06543 -11.081085 v 97.200195 l 29.026367 -12.743103 v -34.163086 l -20.900391 20.898377 L 64.142639 69.529297 L 64.142639 69.529297 z" fill="#D08C2E" /></svg>