<?xml version='1.0' encoding='utf-8'?>
<svg version="1.1" viewBox="0 0 97.522461 100" xmlns="http://www.w3.org/2000/svg"><path id="BattleHammer" d="M 84.121094 19.895508 l 13.401367 30.104492 l -13.4776 30.104492 l -30.930603 16.516602 l 16.177734 -18.207001 l 6.156311 -18.242188 l 8.410095 -10.171905 l -8.410095 -10.17279 l -6.117248 -18.242218 L 53.151367 3.378906 L 84.121094 19.895508 z M 22.071289 60.171905 l -8.408203 -10.171905 l 8.408203 -10.17279 l 6.120056 -18.242218 l 16.178711 -18.206085 l -30.968689 16.516602 l -13.401367 30.104492 l 13.476562 30.104492 l 30.930603 16.516602 l -16.179565 -18.207001 L 22.071289 60.171905 z M 61.297851 75.001007 l 3.943298 -25.001007 l -3.943298 -24.998993 l -12.537048 -25.001007 l -12.537231 25.001007 l -3.942322 24.998993 l 3.942322 25.001007 l 12.537231 24.998993 L 61.297851 75.001007 z" fill="#20C020" /></svg>