<?xml version='1.0' encoding='utf-8'?>
<svg version="1.1" viewBox="0 0 96.757812 100" xmlns="http://www.w3.org/2000/svg"><path id="OmegaCannon" d="M 36.1651 53.864288 l -14.360901 7.014618 l -5.821777 9.684601 l -1.096191 7.632782 l 10.876526 20.470703 l -19.512207 -14.170898 L 0 65.22171 l 4.674316 -21.423798 l 10.640686 -15.363312 M 60.594727 53.864288 l 14.359375 7.014618 l 5.82135 9.684601 l 1.09668 7.632782 l -10.877014 20.470703 l 19.511841 -14.170898 l 6.250854 -19.274383 l -4.629883 -21.423798 l -10.6875 -15.363312 L 60.594727 53.864288 z M 48.379944 53.864288 L 22.518616 79.53421 l 11.976501 17.081085 l 13.884827 3.384705 l 13.882812 -3.384705 L 74.286255 79.53421 L 48.379944 53.864288 z M 73.522522 19.274414 l -9.066406 -14.934509 l -16.076172 -4.339905 l -16.080139 4.339905 l -9.066345 14.934509 l 25.146484 34.589874 L 73.522522 19.274414 z" fill="#D0D0D0" /></svg>