<?xml version='1.0' encoding='utf-8'?>
<svg version="1.1" viewBox="0 0 76 76" xmlns="http://www.w3.org/2000/svg"><path id="Rader" d="M 60.5 38 A 22.5 22.5 0 1 1 15.5 38 A 22.5 22.5 0 1 1 60.5 38 Z M 75.5 38 A 37.5 37.5 0 1 1 0.5 38 A 37.5 37.5 0 1 1 75.5 38 Z M 64.516504 11.483496 L 38 38 L 11.483496 11.483496" fill="none" stroke="#B90005" stroke-miterlimit="10" /><path d="M 37.1456604 33.4797554 l -4.0648232 7.0404854 C 32.7011299 41.1779137 33.1757622 42 33.935173 42 h 8.1296539 c 0.7594109 0 1.2340431 -0.8220863 0.8543358 -1.4797592 l -4.0648232 -7.0404854 C 38.4746323 32.8220863 37.5253677 32.8220863 37.1456604 33.4797554 z" fill="#B90005" /></svg>
